<svg xmlns="http://www.w3.org/2000/svg" width="125" height="82.5" viewBox="0 0 1754.249 1155.501">
  <defs>
    <style>
      .cls-1 {
        fill: none;
        stroke: #000;
        stroke-width: 8px;
        fill-rule: evenodd;
      }
    </style>
  </defs>
  <path id="Jaden_Kim" data-name="Jaden Kim" class="cls-1" d="M333.542,153.334c5.625-30,15.625-59.374,48.75-69.374,5-1.875,8.749-6.25,8.749-11.25,0-6.875-4.375-11.875-11.249-11.875H192.918c-7.5,0-11.875,5-11.875,11.875,0,5,3.75,10,10.625,11.25,28.75,6.25,39.374,20.624,39.374,43.75a119.161,119.161,0,0,1-1.875,20l-45,240c-8.75,47.5-17.5,93.124-45,126.874-21.25,25.625-54.375,43.75-96.249,51.25-8.75.625-13.125,6.25-13.125,12.5,0,5.624,4.375,11.874,13.125,11.874,50.625,0,112.5-11.249,159.374-43.749,40.624-28.125,70-68.125,80.624-125Zm235,18.75c-107.5,0-190.624,103.124-190.624,216.874,0,54.374,26.25,91.249,70,91.249,32.5,0,60-18.125,80.625-40,20.625-21.25,36.875-48.749,49.375-74.374,0.626-1.251,1.251-1.876,2.5-1.876a1.657,1.657,0,0,1,1.875,1.875c-1.876,7.5-8.751,36.876-10,43.126-2.5,10-2.5,16.249-2.5,23.749,0,28.125,18.125,46.25,46.249,46.25,35,0,78.75-23.125,100-48.75,3.125-3.75,5.625-8.75,5.625-13.749-0.625-4.375-3.125-8.75-8.75-8.75-4.375,0-10.625,1.875-16.25,1.875-15.625,0-23.75-13.75-23.75-31.875,0-10,2.5-20,3.75-29.375l18.75-113.749c4.375-28.125,15.625-61.875,15.625-68.75,0-5.625-3.125-10-11.25-10-8.75,0-38.75,6.25-45.625,6.25s-13.75,2.5-18.125,8.125l-12.5,16.875C607.912,175.834,588.538,172.084,568.538,172.084Zm-2.5,40.625c23.75,0,38.749,8.75,38.749,15,0,4.375-2.5,9.375-3.124,13.75-2.5,8.125-24.375,74.374-28.75,84.374-16.25,35.625-35,70.625-63.125,70.625-21.875,0-32.5-26.875-32.5-61.25C477.288,281.458,501.038,212.709,566.038,212.709Zm286.243,122.5c0-56.25,26.25-125.624,86.875-125.624,24.374,0,40.624,10,40.624,14.375,0,12.5-18.75,69.374-30.624,99.374-15,37.5-35,73.75-64.375,73.75C862.906,397.083,852.281,369.583,852.281,335.208Zm-99.374,53.75c0,54.374,26.25,90.624,70,90.624,64.375,0,104.375-63.124,130.625-113.749,0.625-1.25.625-1.875,1.875-1.875,1.875,0,1.875,1.25,1.875,3.75-6.875,21.25-12.5,45-12.5,66.874,0,30,19.375,44.375,45,44.375,34.38,0,106.25-30.625,106.25-61.249,0-4.375-2.5-8.125-8.75-8.125s-13.75,3.125-20.63,3.125c-14.37,0-18.74-15-18.74-30.625,0-15,3.74-33.75,5.62-45.625l50-303.748c-0.63-10.625-10-13.75-17.5-13.75-31.25,0-65.62,30-111.875,30-11.874,0-16.874,11.25-16.874,20,0,6.25,1.875,11.25,6.249,12.5,21.875,0,31.25,9.375,31.25,25.624l-5.625,70.625c-12.5-5.625-28.749-8.125-45-8.125C833.531,169.584,752.907,275.833,752.907,388.958ZM1340.4,160.834c-38.75,0-75,13.75-106.87,36.25-65,45.625-109.38,125.624-109.38,193.124,0,50.624,29.38,90,100.63,90,52.5,0,113.75-24.375,148.75-58.125,3.12-3.125,5.62-7.5,5.62-11.249,0-6.25-3.12-9.375-8.75-9.375-3.12,0-5,1.25-8.12,2.5a140.84,140.84,0,0,1-58.75,13.125c-36.88,0-62.5-19.375-76.25-46.875-2.5-4.375-4.38-9.375-4.38-10s0.63-1.25,1.88-1.25c23.12-6.875,55.62-18.125,86.25-34.375,41.25-21.875,82.5-56.25,82.5-111.249C1393.53,184.584,1377.9,160.834,1340.4,160.834Zm-61.87,57.5c16.87,0,26.25,16.25,26.25,34.375,0,24.374-15,41.249-32.5,53.749-25,18.125-53.13,27.5-55,27.5-1.25,0-1.25-.625-1.25-1.25a114.372,114.372,0,0,1-1.25-16.876c0-5,.62-10.624,1.25-16.874a120.935,120.935,0,0,1,16.25-50C1243.53,229.584,1259.78,218.334,1278.53,218.334Zm154.99,254.373h98.13c4.37-65.624,19.37-147.5,60.62-200.624,12.5-16.25,23.13-26.874,40-26.874,17.5,0,23.75,12.5,23.75,27.5,0,24.375-13.12,57.5-16.87,70.625-8.13,26.875-19.38,59.375-19.38,86.874,0,29.375,11.88,48.75,46.25,48.75,36.25,0,110-31.25,110-61.874,0-4.375-2.5-8.75-9.37-8.75-7.5,0-14.38,4.375-20.63,4.375-14.37,0-20-14.375-20-35,0-40,27.5-97.5,27.5-154.374,0-37.5-20.62-61.875-58.12-61.875-64.38,0-111.88,64.375-136.88,114.374-1.25,0-1.25-.625-1.25-1.875,3.75-21.249,11.88-46.874,11.88-63.124,0-33.125-20-46.25-45-46.25-35,0-80,21.875-101.25,48.75-3.13,4.375-5.63,8.125-5.63,12.5,0,5.625,3.13,9.375,8.75,9.375,6.88,0,11.25-4.375,16.25-4.375,15,0,23.75,11.25,23.75,37.5-1.25,13.75-3.75,27.5-5.62,39.375ZM324.792,833.334c5.625-32.5,15-54.374,45-61.874a11.251,11.251,0,0,0,9.375-11.25c0-6.875-3.75-11.875-11.25-11.875H201.043c-7.5,0-11.25,5.625-11.25,11.875,0,5,3.125,10,10,11.25,18.125,2.5,23.75,14.374,23.75,29.374,0,6.875-1.25,15-2.5,22.5l-46.25,244.376c-5.625,28.75-13.125,59.37-45,69.37-6.25,1.88-10.625,5.63-10.625,12.5s5,10.63,12.5,10.63H307.917c7.5,0,13.125-3.75,13.125-10.63a12.609,12.609,0,0,0-10.625-12.5c-24.375-2.5-34.375-16.87-34.375-36.87,0-6.25,1.25-13.13,2.5-20l14.375-80.627,29.375-21.875a43.951,43.951,0,0,0,5,16.25l31.875,69.372c27.5,60,46.249,103.13,123.124,103.13,29.375,0,56.25-4.38,78.124-12.5,5-2.5,10-5.63,10-12.5,0-6.25-5-8.75-9.375-11.88-23.749-16.87-53.749-47.5-81.874-85-10-11.87-79.375-108.746-87.5-121.246l124.375-96.875c34.375-26.875,56.874-43.75,92.5-56.249q11.25-3.75,11.25-11.25c0-7.5-6.25-10.625-13.125-10.625H454.791c-7.5,0-11.875,5.625-11.875,11.875,0,5.625,4.375,9.375,9.375,11.25,10.625,3.125,16.25,8.75,16.25,18.124,0,14.375-12.5,23.75-29.375,38.75L302.292,950.208ZM657.911,1166.46c34.374,0,78.124-20.63,101.249-45,4.376-5,8.751-10.63,8.751-17.5,0-4.38-2.5-8.13-8.75-8.13-4.376,0-11.251,1.25-16.876,1.25-6.25,0-12.5-1.87-16.25-5.62-5.625-5.63-8.125-15-8.125-25a123.514,123.514,0,0,1,3.75-28.75c3.75-16.25,16.875-80,20.625-98.126,3.125-13.75,6.25-30,6.25-45,0-30-18.125-42.5-43.75-42.5-33.125,0-74.374,19.375-96.874,43.75-5.625,5-10,10.625-10,18.125,0,4.375,2.5,8.75,8.125,8.75,5,0,10.625-1.875,17.5-1.875,6.25,0,11.875,1.25,15.625,5,5.625,5,7.5,13.75,7.5,23.124,0,11.25-2.5,22.5-4.375,32.5-5,18.752-20.625,85-25.625,103.122-3.125,13.13-5,25-5,37.5C612.286,1146.46,622.286,1165.83,657.911,1166.46Zm66.874-465c-38.75,0-69.375,25-69.375,64.375,0,26.874,17.5,44.374,53.125,44.374,38.75,0,66.875-23.125,66.875-63.124C775.41,720.21,759.785,701.46,724.785,701.46Zm95.62,458.75H918.53c5-73.75,37.5-222.5,100-228.126,18.12,0,23.75,15,23.75,31.249,0,33.75-10.63,71.247-15,97.5l-17.5,99.38h98.12c6.25-72.5,37.5-222.5,101.25-228.126,18.13,0,22.5,13.749,22.5,28.749,0,23.125-12.5,58.127-16.87,70.627-9.38,26.25-19.38,58.75-19.38,85,0,30,11.25,50,46.25,50,55.63,0,110-33.75,110-61.88,0-4.37-1.87-8.12-7.5-8.12s-11.25,5.62-18.12,5.62c-17.5,0-23.75-13.75-23.75-33.75,0-40.62,26.87-96.872,26.87-156.246,0-38.125-20-63.125-57.5-63.125-65,0-108.75,63.125-135,115.624a4.7,4.7,0,0,1-2.5,1.25c-1.25,0-1.25-.625-1.25-1.875,3.13-16.25,6.88-35.624,6.88-53.124,0-37.5-20-61.875-58.13-61.875-65,0-108.746,62.5-133.745,113.124a3.312,3.312,0,0,1-1.875,1.25c-1.25,0-1.25-.625-1.25-1.875,5-22.5,11.875-47.5,11.875-63.749,0-33.75-18.75-45.625-45-45.625-46.875,0-106.874,36.875-106.874,61.875,0,4.375,2.5,8.75,8.124,8.75,7.5,0,13.125-3.125,20-3.125,17.5,0,19.375,16.875,19.375,31.874,0,9.375-3.125,30-5,40.625Z" transform="translate(-25.781 -14.969)"/>
</svg>
